# Blender v3.0.0 OBJ File: ''
# www.blender.org
mtllib SM_HangingDummyWide.mtl
o UCX_SM_HangingDummyWide
v -0.035039 -0.016773 -0.006000
v -0.035039 -0.016773 0.006000
v 0.034961 -0.016773 0.006000
v 0.034961 -0.016773 -0.006000
v -0.035039 -0.162803 -0.006000
v -0.035039 -0.162803 0.006000
v -0.035039 -0.016773 0.006000
v -0.035039 -0.016773 -0.006000
v 0.034961 -0.016773 -0.006000
v 0.034961 -0.016773 0.006000
v 0.034961 -0.162803 0.006000
v 0.034961 -0.162803 -0.006000
v -0.035039 -0.016773 0.006000
v -0.035039 -0.162803 0.006000
v 0.034961 -0.162803 0.006000
v 0.034961 -0.016773 0.006000
v -0.035039 -0.162803 -0.006000
v -0.035039 -0.016773 -0.006000
v 0.034961 -0.016773 -0.006000
v 0.034961 -0.162803 -0.006000
v 0.034961 -0.162803 -0.006000
v 0.034961 -0.162803 0.006000
v -0.035039 -0.162803 0.006000
v -0.035039 -0.162803 -0.006000
v -0.034313 -0.001449 -0.006000
v -0.034313 -0.001449 0.006000
v -0.014313 -0.001449 0.006000
v -0.014313 -0.001449 -0.006000
v -0.034313 -0.021449 -0.006000
v -0.034313 -0.021449 0.006000
v -0.034313 -0.001449 0.006000
v -0.034313 -0.001449 -0.006000
v -0.014313 -0.001449 -0.006000
v -0.014313 -0.001449 0.006000
v -0.014313 -0.021449 0.006000
v -0.014313 -0.021449 -0.006000
v -0.034313 -0.001449 0.006000
v -0.034313 -0.021449 0.006000
v -0.014313 -0.021449 0.006000
v -0.014313 -0.001449 0.006000
v -0.034313 -0.021449 -0.006000
v -0.034313 -0.001449 -0.006000
v -0.014313 -0.001449 -0.006000
v -0.014313 -0.021449 -0.006000
v -0.014313 -0.021449 -0.006000
v -0.014313 -0.021449 0.006000
v -0.034313 -0.021449 0.006000
v -0.034313 -0.021449 -0.006000
v -0.035039 0.012840 -0.006000
v -0.035039 0.012840 0.006000
v 0.034961 0.012840 0.006000
v 0.034961 0.012840 -0.006000
v -0.035039 -0.004660 -0.006000
v -0.035039 -0.004660 0.006000
v -0.035039 0.012840 0.006000
v -0.035039 0.012840 -0.006000
v 0.034961 0.012840 -0.006000
v 0.034961 0.012840 0.006000
v 0.034961 -0.004660 0.006000
v 0.034961 -0.004660 -0.006000
v -0.035039 0.012840 0.006000
v -0.035039 -0.004660 0.006000
v 0.034961 -0.004660 0.006000
v 0.034961 0.012840 0.006000
v -0.035039 -0.004660 -0.006000
v -0.035039 0.012840 -0.006000
v 0.034961 0.012840 -0.006000
v 0.034961 -0.004660 -0.006000
v 0.034961 -0.004660 -0.006000
v 0.034961 -0.004660 0.006000
v -0.035039 -0.004660 0.006000
v -0.035039 -0.004660 -0.006000
v 0.014909 -0.001449 -0.006000
v 0.014909 -0.001449 0.006000
v 0.034909 -0.001449 0.006000
v 0.034909 -0.001449 -0.006000
v 0.014909 -0.021449 -0.006000
v 0.014909 -0.021449 0.006000
v 0.014909 -0.001449 0.006000
v 0.014909 -0.001449 -0.006000
v 0.034909 -0.001449 -0.006000
v 0.034909 -0.001449 0.006000
v 0.034909 -0.021449 0.006000
v 0.034909 -0.021449 -0.006000
v 0.014909 -0.001449 0.006000
v 0.014909 -0.021449 0.006000
v 0.034909 -0.021449 0.006000
v 0.034909 -0.001449 0.006000
v 0.014909 -0.021449 -0.006000
v 0.014909 -0.001449 -0.006000
v 0.034909 -0.001449 -0.006000
v 0.034909 -0.021449 -0.006000
v 0.034909 -0.021449 -0.006000
v 0.034909 -0.021449 0.006000
v 0.014909 -0.021449 0.006000
v 0.014909 -0.021449 -0.006000
vn 0.0000 1.0000 0.0000
vn -1.0000 -0.0000 0.0000
vn 1.0000 -0.0000 0.0000
vn 0.0000 -0.0000 1.0000
vn 0.0000 -0.0000 -1.0000
vn 0.0000 -1.0000 0.0000
usemtl None
s 1
f 1//1 2//1 3//1 4//1
f 5//2 6//2 7//2 8//2
f 9//3 10//3 11//3 12//3
f 13//4 14//4 15//4 16//4
f 17//5 18//5 19//5 20//5
f 21//6 22//6 23//6 24//6
f 25//1 26//1 27//1 28//1
f 29//2 30//2 31//2 32//2
f 33//3 34//3 35//3 36//3
f 37//4 38//4 39//4 40//4
f 41//5 42//5 43//5 44//5
f 45//6 46//6 47//6 48//6
f 49//1 50//1 51//1 52//1
f 53//2 54//2 55//2 56//2
f 57//3 58//3 59//3 60//3
f 61//4 62//4 63//4 64//4
f 65//5 66//5 67//5 68//5
f 69//6 70//6 71//6 72//6
f 73//1 74//1 75//1 76//1
f 77//2 78//2 79//2 80//2
f 81//3 82//3 83//3 84//3
f 85//4 86//4 87//4 88//4
f 89//5 90//5 91//5 92//5
f 93//6 94//6 95//6 96//6
